<?xml version="1.0" encoding="UTF-8"?>
<svg width="10px" height="10px" viewBox="0 0 10 10" version="1.1" xmlns="http://www.w3.org/2000/svg" xmlns:xlink="http://www.w3.org/1999/xlink">
    <!-- Generator: sketchtool 51.2 (57519) - http://www.bohemiancoding.com/sketch -->
    <title>DE9A3DD1-2F20-499F-9FFF-7CD4DED769D4</title>
    <desc>Created with sketchtool.</desc>
    <defs></defs>
    <g id="Mobile-App-Wireframes" stroke="none" stroke-width="1" fill="none" fill-rule="evenodd">
        <g id="assist_teach-me_course-category-screen" transform="translate(-107.000000, -760.000000)" fill="#AEB5BB" fill-rule="nonzero">
            <g id="cards/course" transform="translate(30.000000, 396.000000)">
                <g id="Group-5">
                    <g id="Group-3" transform="translate(77.000000, 364.000000)">
                        <g id="icon-clock">
                            <path d="M5,10 C2.23857625,10 1.99840144e-15,7.76142375 1.77635684e-15,5 C1.55431223e-15,2.23857625 2.23857625,2.22044605e-15 5,1.77635684e-15 C7.76142375,1.99840144e-15 10,2.23857625 10,5 C10,7.76142375 7.76142375,10 5,10 Z M5,9 C7.209139,9 9,7.209139 9,5 C9,2.790861 7.209139,1 5,1 C2.790861,1 1,2.790861 1,5 C1,7.209139 2.790861,9 5,9 Z M5.5,4.795 L6.77,6.06 C6.96606109,6.25606109 6.96606109,6.57393891 6.77,6.77 C6.57393891,6.96606109 6.25606109,6.96606109 6.06,6.77 L4.65,5.35 C4.55579287,5.25768477 4.50187852,5.13188463 4.5,5 L4.5,3 C4.5,2.72385763 4.72385763,2.5 5,2.5 C5.27614237,2.5 5.5,2.72385763 5.5,3 L5.5,4.795 Z" id="Shape"></path>
                        </g>
                    </g>
                </g>
            </g>
        </g>
    </g>
</svg>