<?xml version="1.0" encoding="UTF-8"?>
<svg width="18px" height="18px" viewBox="0 0 18 18" version="1.1" xmlns="http://www.w3.org/2000/svg" xmlns:xlink="http://www.w3.org/1999/xlink">
    <!-- Generator: sketchtool 51.2 (57519) - http://www.bohemiancoding.com/sketch -->
    <title>A4D505C9-1B2B-4184-8F4F-E2D9A57866A5</title>
    <desc>Created with sketchtool.</desc>
    <defs></defs>
    <g id="Mobile-App-Wireframes" stroke="none" stroke-width="1" fill="none" fill-rule="evenodd">
        <g id="assist_teach-me_menu-screen" transform="translate(-300.000000, -42.000000)" fill="#FFFFFF" fill-rule="nonzero">
            <g id="icon-x" transform="translate(300.000000, 42.000000)">
                <path d="M16.632,14.094 C17.2435982,14.8081685 17.2024781,15.8727495 16.5376138,16.5376138 C15.8727495,17.2024781 14.8081685,17.2435982 14.094,16.632 L9,11.538 L3.906,16.632 C3.1918315,17.2435982 2.12725049,17.2024781 1.4623862,16.5376138 C0.797521915,15.8727495 0.756401767,14.8081685 1.368,14.094 L6.462,9 L1.368,3.906 C0.756401767,3.1918315 0.797521915,2.12725049 1.4623862,1.4623862 C2.12725049,0.797521915 3.1918315,0.756401767 3.906,1.368 L9,6.462 L14.094,1.368 C14.8081685,0.756401767 15.8727495,0.797521915 16.5376138,1.4623862 C17.2024781,2.12725049 17.2435982,3.1918315 16.632,3.906 L11.538,9 L16.632,14.094 Z" id="Shape"></path>
            </g>
        </g>
    </g>
</svg>